<svg width="30" height="30" viewBox="0 0 30 30" fill="none" xmlns="http://www.w3.org/2000/svg">
<circle cx="15" cy="15" r="15" fill="#E4E7F0"/>
<path d="M18.0015 24.4762C18.0015 24.4762 17.2515 24.7499 15.0015 24.7499C12.7515 24.7499 11.5327 23.9999 10.5015 23.2499H7.50147C6.70582 23.2499 5.94275 22.9339 5.38014 22.3713C4.81754 21.8086 4.50146 21.0456 4.50146 20.2499V17.9999C4.50146 17.2043 4.81754 16.4412 5.38014 15.8786C5.94275 15.316 6.70582 14.9999 7.50147 14.9999H8.90772C9.16528 14.9985 9.41823 14.9315 9.64271 14.8052C9.86718 14.6789 10.0558 14.4975 10.1907 14.2781C10.1907 14.2781 10.5952 13.3973 11.814 11.2865C13.0327 9.17571 15.3765 5.99993 15.7515 5.24993C17.1108 5.24993 17.7671 6.28118 17.3452 7.48633C16.8633 8.86399 16.2338 10.0354 16.058 11.5687C16.0327 11.7927 16.2052 12.1312 16.4307 12.1312L22.5015 12.6093" stroke="#4F4E4D" stroke-width="1.00189" stroke-linecap="round" stroke-linejoin="round"/>
<path d="M22.5022 15.703L18.7517 15.6092C17.814 15.5229 17.2515 15.0279 17.2515 14.2027C17.2515 13.3776 17.9078 12.8507 18.7517 12.7963L22.5022 12.6088C23.3273 12.6088 24.0024 13.3776 24.0024 14.2027V14.2107C24.0003 14.6072 23.8413 14.9868 23.5602 15.2664C23.2791 15.546 22.8987 15.703 22.5022 15.703Z" stroke="#4F4E4D" stroke-width="1.00189" stroke-miterlimit="10"/>
<path d="M24.0024 18.7499L18.7517 18.6562C17.9078 18.6168 17.2515 18.0744 17.2515 17.2497C17.2515 16.4241 17.9078 15.8967 18.7517 15.8433L24.0024 15.7495C24.3999 15.7507 24.7808 15.9092 25.0619 16.1903C25.3429 16.4713 25.5014 16.8522 25.5026 17.2497V17.2497C25.5014 17.6472 25.3429 18.0281 25.0619 18.3092C24.7808 18.5902 24.3999 18.7487 24.0024 18.7499V18.7499Z" stroke="#4F4E4D" stroke-width="1.00189" stroke-miterlimit="10"/>
<path d="M21.7521 24.7504L18.7517 24.6098C17.7672 24.5235 17.2515 24.0753 17.2515 23.2502C17.2515 22.4251 17.9266 21.8437 18.7517 21.8437L21.7521 21.75C22.1496 21.7511 22.5306 21.9095 22.8117 22.1906C23.0928 22.4717 23.2512 22.8527 23.2523 23.2502V23.2502C23.2512 23.6477 23.0928 24.0287 22.8117 24.3098C22.5306 24.5909 22.1496 24.7493 21.7521 24.7504V24.7504Z" stroke="#4F4E4D" stroke-width="1.00189" stroke-miterlimit="10"/>
<path d="M23.2523 21.7491L18.7517 21.6553C17.8609 21.6159 17.2515 21.074 17.2515 20.2489C17.2515 19.4237 17.8609 18.8968 18.7517 18.8424L23.2523 18.7486C23.6499 18.7498 24.0308 18.9082 24.3119 19.1893C24.593 19.4704 24.7514 19.8513 24.7525 20.2489V20.2489C24.7514 20.6464 24.593 21.0273 24.3119 21.3084C24.0308 21.5895 23.6499 21.748 23.2523 21.7491Z" stroke="#4F4E4D" stroke-width="1.00189" stroke-miterlimit="10"/>
</svg>
