<svg width="12" height="12" viewBox="0 0 12 12" fill="none" xmlns="http://www.w3.org/2000/svg">
<path d="M2.625 2.62607L3.09375 10.1261C3.11602 10.5594 3.43125 10.8761 3.84375 10.8761H8.15625C8.57039 10.8761 8.87977 10.5594 8.90625 10.1261L9.375 2.62607" stroke="#629E58" stroke-width="1.00189" stroke-linecap="round" stroke-linejoin="round"/>
<path d="M1.87524 2.62625H10.1252" stroke="#629E58" stroke-width="1.00189" stroke-miterlimit="10" stroke-linecap="round"/>
<path d="M4.5 2.62525V1.68761C4.49979 1.61367 4.51419 1.54042 4.54239 1.47207C4.57058 1.40371 4.61201 1.34161 4.6643 1.28933C4.71658 1.23704 4.77868 1.19561 4.84704 1.16742C4.91539 1.13922 4.98864 1.12482 5.06258 1.12503H6.93785C7.01179 1.12482 7.08504 1.13922 7.15339 1.16742C7.22175 1.19561 7.28385 1.23704 7.33614 1.28933C7.38842 1.34161 7.42985 1.40371 7.45805 1.47207C7.48624 1.54042 7.50065 1.61367 7.50043 1.68761V2.62525" stroke="#629E58" stroke-width="1.00189" stroke-linecap="round" stroke-linejoin="round"/>
<path d="M6.00024 4.12491V9.37491" stroke="#629E58" stroke-width="1.00189" stroke-linecap="round" stroke-linejoin="round"/>
<path d="M4.3125 4.12491L4.5 9.37491" stroke="#629E58" stroke-width="1.00189" stroke-linecap="round" stroke-linejoin="round"/>
<path d="M7.6875 4.12491L7.5 9.37491" stroke="#629E58" stroke-width="1.00189" stroke-linecap="round" stroke-linejoin="round"/>
</svg>
