<svg width="24" height="24" viewBox="0 0 24 24" fill="none" xmlns="http://www.w3.org/2000/svg">
<circle cx="12" cy="12" r="11.5" fill="white" stroke="#EDECEC"/>
<path d="M10.125 10.8753H12.1253V16.2511" stroke="#629E58" stroke-width="1.00189" stroke-linecap="round" stroke-linejoin="round"/>
<path d="M9.84277 16.3752H14.1559" stroke="#629E58" stroke-width="1.00189" stroke-miterlimit="10" stroke-linecap="round"/>
<path d="M12.0002 9.00214C11.8023 9.00214 11.6088 8.94344 11.4443 8.83348C11.2797 8.72352 11.1514 8.56723 11.0757 8.38437C10.9999 8.2015 10.9801 8.00029 11.0187 7.80617C11.0574 7.61204 11.1527 7.43373 11.2926 7.29377C11.4326 7.15382 11.6109 7.05851 11.805 7.01989C11.9991 6.98128 12.2004 7.0011 12.3832 7.07684C12.5661 7.15258 12.7224 7.28085 12.8323 7.44542C12.9423 7.60999 13.001 7.80347 13.001 8.0014C13.001 8.26681 12.8955 8.52135 12.7079 8.70903C12.5202 8.8967 12.2657 9.00214 12.0002 9.00214Z" fill="#629E58"/>
</svg>
