<svg width="30" height="30" viewBox="0 0 30 30" fill="none" xmlns="http://www.w3.org/2000/svg">
<circle cx="15" cy="15" r="15" fill="#FFF6F6"/>
<path d="M11.9985 7.52368C11.9985 7.52368 12.7485 7.24993 14.9985 7.24993C17.2485 7.24993 18.4673 7.99993 19.4985 8.74993H22.4985C23.2942 8.74993 24.0572 9.066 24.6199 9.62861C25.1825 10.1912 25.4985 10.9543 25.4985 11.7499V13.9999C25.4985 14.7956 25.1825 15.5586 24.6199 16.1213C24.0572 16.6839 23.2942 16.9999 22.4985 16.9999H21.0923C20.8347 17.0014 20.5818 17.0684 20.3573 17.1947C20.1328 17.321 19.9442 17.5024 19.8093 17.7218C19.8093 17.7218 19.4048 18.6026 18.186 20.7134C16.9673 22.8242 14.6235 25.9999 14.2485 26.7499C12.8892 26.7499 12.2329 25.7187 12.6548 24.5135C13.1367 23.1359 13.7662 21.9645 13.942 20.4312C13.9673 20.2071 13.7948 19.8687 13.567 19.8687L7.49854 19.3906" stroke="#4F4E4D" stroke-width="1.00189" stroke-linecap="round" stroke-linejoin="round"/>
<path d="M7.5007 16.2971L11.2512 16.3909C12.1889 16.4771 12.7515 16.9722 12.7515 17.7973C12.7515 18.6225 12.0951 19.1494 11.2512 19.2038L7.5007 19.3913C6.67558 19.3913 6.00049 18.6225 6.00049 17.7973V17.7894C6.00259 17.3929 6.16158 17.0133 6.4427 16.7337C6.72382 16.4541 7.1042 16.2971 7.5007 16.2971V16.2971Z" stroke="#4F4E4D" stroke-width="1.00189" stroke-miterlimit="10"/>
<path d="M5.99973 13.25L11.2505 13.3438C12.0943 13.3832 12.7507 13.9256 12.7507 14.7503C12.7507 15.5758 12.0943 16.1033 11.2505 16.1567L5.99973 16.2505C5.60222 16.2492 5.22136 16.0908 4.94028 15.8097C4.6592 15.5286 4.50075 15.1478 4.49951 14.7503V14.7503C4.50075 14.3528 4.6592 13.9719 4.94028 13.6908C5.22136 13.4097 5.60222 13.2513 5.99973 13.25Z" stroke="#4F4E4D" stroke-width="1.00189" stroke-miterlimit="10"/>
<path d="M8.25021 7.24993L11.2506 7.39058C12.2352 7.47684 12.7509 7.92503 12.7509 8.75015C12.7509 9.57526 12.0758 10.1566 11.2506 10.1566L8.25021 10.2504C7.85267 10.2492 7.47174 10.0908 7.19063 9.80973C6.90953 9.52862 6.75111 9.14768 6.75 8.75015V8.75015C6.75111 8.35261 6.90953 7.97167 7.19063 7.69056C7.47174 7.40946 7.85267 7.25104 8.25021 7.24993V7.24993Z" stroke="#4F4E4D" stroke-width="1.00189" stroke-miterlimit="10"/>
<path d="M6.7507 10.2524L11.2513 10.3461C12.1421 10.3855 12.7516 10.9275 12.7516 11.7526C12.7516 12.5777 12.1421 13.1046 11.2513 13.159L6.7507 13.2528C6.35316 13.2517 5.97222 13.0933 5.69112 12.8122C5.41002 12.5311 5.2516 12.1501 5.25049 11.7526V11.7526C5.2516 11.355 5.41002 10.9741 5.69112 10.693C5.97222 10.4119 6.35316 10.2535 6.7507 10.2524V10.2524Z" stroke="#4F4E4D" stroke-width="1.00189" stroke-miterlimit="10"/>
</svg>
