<svg width="24" height="24" viewBox="0 0 24 24" fill="none" xmlns="http://www.w3.org/2000/svg">
<path d="M8.99854 2.52368C8.99854 2.52368 9.74854 2.24993 11.9985 2.24993C14.2485 2.24993 15.4673 2.99993 16.4985 3.74993H19.4985C20.2942 3.74993 21.0572 4.066 21.6199 4.62861C22.1825 5.19122 22.4985 5.95428 22.4985 6.74993V8.99993C22.4985 9.79558 22.1825 10.5586 21.6199 11.1213C21.0572 11.6839 20.2942 11.9999 19.4985 11.9999H18.0923C17.8347 12.0014 17.5818 12.0684 17.3573 12.1947C17.1328 12.321 16.9442 12.5024 16.8093 12.7218C16.8093 12.7218 16.4048 13.6026 15.186 15.7134C13.9673 17.8242 11.6235 20.9999 11.2485 21.7499C9.88916 21.7499 9.23291 20.7187 9.65479 19.5135C10.1367 18.1359 10.7662 16.9645 10.942 15.4312C10.9673 15.2071 10.7948 14.8687 10.567 14.8687L4.49854 14.3906" stroke="#4F4E4D" stroke-width="1.00189" stroke-linecap="round" stroke-linejoin="round"/>
<path d="M4.5007 11.2971L8.25124 11.3909C9.18887 11.4771 9.75145 11.9722 9.75145 12.7973C9.75145 13.6225 9.09511 14.1494 8.25124 14.2038L4.5007 14.3913C3.67558 14.3913 3.00049 13.6225 3.00049 12.7973V12.7894C3.00259 12.3929 3.16158 12.0133 3.4427 11.7337C3.72382 11.4541 4.1042 11.2971 4.5007 11.2971V11.2971Z" stroke="#4F4E4D" stroke-width="1.00189" stroke-miterlimit="10"/>
<path d="M2.99973 8.25005L8.25047 8.34381C9.09434 8.38319 9.75069 8.92561 9.75069 9.75026C9.75069 10.5758 9.09434 11.1033 8.25047 11.1567L2.99973 11.2505C2.60222 11.2492 2.22136 11.0908 1.94028 10.8097C1.6592 10.5286 1.50075 10.1478 1.49951 9.75026V9.75026C1.50075 9.35276 1.6592 8.97189 1.94028 8.69081C2.22136 8.40974 2.60222 8.25128 2.99973 8.25005Z" stroke="#4F4E4D" stroke-width="1.00189" stroke-miterlimit="10"/>
<path d="M5.25021 2.24993L8.25064 2.39058C9.23516 2.47684 9.75085 2.92503 9.75085 3.75015C9.75085 4.57526 9.07576 5.1566 8.25064 5.1566L5.25021 5.25036C4.85267 5.24925 4.47174 5.09083 4.19063 4.80973C3.90953 4.52862 3.75111 4.14768 3.75 3.75015V3.75015C3.75111 3.35261 3.90953 2.97167 4.19063 2.69056C4.47174 2.40946 4.85267 2.25104 5.25021 2.24993V2.24993Z" stroke="#4F4E4D" stroke-width="1.00189" stroke-miterlimit="10"/>
<path d="M3.7507 5.25237L8.25135 5.34613C9.1421 5.38551 9.75156 5.92746 9.75156 6.75258C9.75156 7.5777 9.1421 8.10465 8.25135 8.15903L3.7507 8.25279C3.35316 8.25168 2.97222 8.09326 2.69112 7.81216C2.41002 7.53106 2.2516 7.15012 2.25049 6.75258V6.75258C2.2516 6.35504 2.41002 5.9741 2.69112 5.693C2.97222 5.41189 3.35316 5.25348 3.7507 5.25237V5.25237Z" stroke="#4F4E4D" stroke-width="1.00189" stroke-miterlimit="10"/>
</svg>
