<svg width="24" height="24" viewBox="0 0 24 24" fill="none" xmlns="http://www.w3.org/2000/svg">
<path d="M15.0015 21.4762C15.0015 21.4762 14.2515 21.7499 12.0015 21.7499C9.75147 21.7499 8.53272 20.9999 7.50147 20.2499H4.50147C3.70582 20.2499 2.94275 19.9339 2.38014 19.3713C1.81754 18.8086 1.50146 18.0456 1.50146 17.2499V14.9999C1.50146 14.2043 1.81754 13.4412 2.38014 12.8786C2.94275 12.316 3.70582 11.9999 4.50147 11.9999H5.90772C6.16528 11.9985 6.41823 11.9315 6.64271 11.8052C6.86718 11.6789 7.05577 11.4975 7.19068 11.2781C7.19068 11.2781 7.59522 10.3973 8.81397 8.28649C10.0327 6.17571 12.3765 2.99993 12.7515 2.24993C14.1108 2.24993 14.7671 3.28118 14.3452 4.48633C13.8633 5.86399 13.2338 7.0354 13.058 8.56868C13.0327 8.79274 13.2052 9.13118 13.4307 9.13118L19.5015 9.6093" stroke="#4F4E4D" stroke-width="1.00189" stroke-linecap="round" stroke-linejoin="round"/>
<path d="M19.5022 12.703L15.7517 12.6092C14.814 12.5229 14.2515 12.0279 14.2515 11.2027C14.2515 10.3776 14.9078 9.85068 15.7517 9.7963L19.5022 9.60877C20.3273 9.60877 21.0024 10.3776 21.0024 11.2027V11.2107C21.0003 11.6072 20.8413 11.9868 20.5602 12.2664C20.2791 12.546 19.8987 12.703 19.5022 12.703Z" stroke="#4F4E4D" stroke-width="1.00189" stroke-miterlimit="10"/>
<path d="M21.0024 15.7499L15.7517 15.6562C14.9078 15.6168 14.2515 15.0744 14.2515 14.2497C14.2515 13.4241 14.9078 12.8967 15.7517 12.8433L21.0024 12.7495C21.3999 12.7507 21.7808 12.9092 22.0619 13.1903C22.3429 13.4713 22.5014 13.8522 22.5026 14.2497V14.2497C22.5014 14.6472 22.3429 15.0281 22.0619 15.3092C21.7808 15.5902 21.3999 15.7487 21.0024 15.7499V15.7499Z" stroke="#4F4E4D" stroke-width="1.00189" stroke-miterlimit="10"/>
<path d="M18.7521 21.7504L15.7517 21.6098C14.7672 21.5235 14.2515 21.0753 14.2515 20.2502C14.2515 19.4251 14.9266 18.8437 15.7517 18.8437L18.7521 18.75C19.1496 18.7511 19.5306 18.9095 19.8117 19.1906C20.0928 19.4717 20.2512 19.8527 20.2523 20.2502V20.2502C20.2512 20.6477 20.0928 21.0287 19.8117 21.3098C19.5306 21.5909 19.1496 21.7493 18.7521 21.7504V21.7504Z" stroke="#4F4E4D" stroke-width="1.00189" stroke-miterlimit="10"/>
<path d="M20.2523 18.7491L15.7517 18.6553C14.8609 18.6159 14.2515 18.074 14.2515 17.2489C14.2515 16.4237 14.8609 15.8968 15.7517 15.8424L20.2523 15.7486C20.6499 15.7498 21.0308 15.9082 21.3119 16.1893C21.593 16.4704 21.7514 16.8513 21.7525 17.2489V17.2489C21.7514 17.6464 21.593 18.0273 21.3119 18.3084C21.0308 18.5895 20.6499 18.748 20.2523 18.7491Z" stroke="#4F4E4D" stroke-width="1.00189" stroke-miterlimit="10"/>
</svg>
