<svg width="28" height="28" viewBox="0 0 28 28" fill="none" xmlns="http://www.w3.org/2000/svg">
<path d="M3.46805 21.7485C3.54305 21.4748 3.37868 21.0942 3.2218 20.8198C3.17317 20.7378 3.12018 20.6586 3.06305 20.5823C1.71759 18.5418 1.00047 16.1514 1.00055 13.7073C0.978053 6.69167 6.79555 0.998543 13.9893 0.998543C20.2631 0.998543 25.5006 5.34479 26.7237 11.1142C26.9072 11.9695 27 12.8418 27.0006 13.7167C27.0006 20.7423 21.4074 26.5248 14.2137 26.5248C13.0693 26.5248 11.5262 26.2373 10.6843 26.0017C9.84243 25.766 9.0018 25.4535 8.78493 25.3698C8.56291 25.2845 8.32714 25.2407 8.0893 25.2404C7.82996 25.2395 7.57312 25.2912 7.3343 25.3923L3.0943 26.9223C3.00165 26.9623 2.90344 26.9881 2.80305 26.9985C2.72365 26.9983 2.64508 26.9823 2.57189 26.9515C2.4987 26.9207 2.43235 26.8757 2.37666 26.8191C2.32098 26.7625 2.27708 26.6954 2.24749 26.6217C2.21791 26.548 2.20323 26.4692 2.2043 26.3898C2.20952 26.3201 2.22209 26.2512 2.2418 26.1842L3.46805 21.7485Z" stroke="black" stroke-width="1.00189" stroke-miterlimit="10" stroke-linecap="round"/>
</svg>
