<svg width="16" height="16" viewBox="0 0 16 16" fill="none" xmlns="http://www.w3.org/2000/svg">
<path fill-rule="evenodd" clip-rule="evenodd" d="M2.49986 5.50105C2.36723 5.50105 2.24002 5.55374 2.14623 5.64753C2.05245 5.74132 1.99976 5.86852 1.99976 6.00116V12.7526C1.99976 13.6978 2.80493 14.503 3.75014 14.503H12.252C13.1972 14.503 14.0024 13.7369 14.0024 12.7917V6.00116C14.0024 5.86852 13.9497 5.74132 13.8559 5.64753C13.7621 5.55374 13.6349 5.50105 13.5023 5.50105H2.49986Z" stroke="black" stroke-width="1.00189" stroke-linecap="round" stroke-linejoin="round"/>
<path d="M5.00049 5.50167V4.50131C5.00049 3.70537 5.31667 2.94204 5.87948 2.37923C6.4423 1.81641 7.20563 1.50023 8.00157 1.50023V1.50023C8.79751 1.50023 9.56084 1.81641 10.1237 2.37923C10.6865 2.94204 11.0027 3.70537 11.0027 4.50131V5.50167" stroke="black" stroke-width="1.00189" stroke-linecap="round" stroke-linejoin="round"/>
</svg>
