<svg width="36" height="40" viewBox="0 0 36 40" fill="none" xmlns="http://www.w3.org/2000/svg">
<path d="M14.999 34.9982H25.0004" stroke="black" stroke-width="1.00189" stroke-linecap="round" stroke-linejoin="round"/>
<path d="M29.999 16.249V18.749C29.999 24.249 25.499 28.749 19.999 28.749C14.499 28.749 9.99902 24.249 9.99902 18.749V16.249" stroke="black" stroke-width="1.00189" stroke-linecap="round" stroke-linejoin="round"/>
<path d="M20.0005 28.7479V35.0025" stroke="black" stroke-width="1.00189" stroke-linecap="round" stroke-linejoin="round"/>
<path d="M19.9991 4.9974C19.3416 4.99409 18.6899 5.12116 18.0818 5.37126C17.4736 5.62136 16.9211 5.98953 16.4562 6.45448C15.9912 6.91944 15.623 7.47195 15.3729 8.08007C15.1228 8.6882 14.9958 9.33987 14.9991 9.9974V18.6693C14.9991 21.4193 17.2647 23.7474 19.9991 23.7474C22.7335 23.7474 24.9991 21.4818 24.9991 18.6693V9.9974C24.9991 7.1849 22.8116 4.9974 19.9991 4.9974Z" stroke="black" stroke-width="1.00189" stroke-linecap="round" stroke-linejoin="round"/>
</svg>
