<svg width="24" height="24" viewBox="0 0 24 24" fill="none" xmlns="http://www.w3.org/2000/svg">
<circle cx="12" cy="12" r="11.5" fill="white" stroke="#EDECEC"/>
<path d="M17.5908 8.30235L12.9223 6.17377C12.4162 5.94246 11.5879 5.94246 11.0819 6.17377L6.4165 8.30235C5.86638 8.55241 5.86638 8.96156 6.4165 9.21161L11.0425 11.3214C11.5704 11.5621 12.4394 11.5621 12.9673 11.3214L17.5933 9.21161C18.1409 8.96156 18.1409 8.5521 17.5908 8.30235Z" stroke="#FCC90E" stroke-width="1.00189" stroke-linecap="round" stroke-linejoin="round"/>
<path d="M9.00143 13.6433L6.4165 14.8033C5.86638 15.0533 5.86638 15.4628 6.4165 15.7129L11.0425 17.8227C11.5704 18.0631 12.4394 18.0631 12.9673 17.8227L17.5933 15.7129C18.1434 15.4628 18.1434 15.0533 17.5933 14.8033L15.0946 13.6008" stroke="#FCC90E" stroke-width="1.00189" stroke-linecap="round" stroke-linejoin="round"/>
<path d="M9.00163 10.3911L6.41357 11.5526C5.86345 11.8027 5.86345 12.2121 6.41357 12.4622L11.0396 14.5717C11.5675 14.8124 12.4364 14.8124 12.9644 14.5717L17.5904 12.4622C18.1436 12.2121 18.1436 11.8027 17.5935 11.5526L15.0029 10.3911" stroke="#FCC90E" stroke-width="1.00189" stroke-linecap="round" stroke-linejoin="round"/>
</svg>
