<svg width="20" height="20" viewBox="0 0 20 20" fill="none" xmlns="http://www.w3.org/2000/svg">
<path d="M3.12402 8.2809V17.4996C3.12402 17.6654 3.18987 17.8244 3.30708 17.9416C3.42429 18.0588 3.58326 18.1246 3.74902 18.1246H7.49903V12.8121C7.49903 12.5635 7.5978 12.3251 7.77361 12.1492C7.94943 11.9734 8.18788 11.8746 8.43653 11.8746H11.5615C11.8102 11.8746 12.0486 11.9734 12.2244 12.1492C12.4003 12.3251 12.499 12.5635 12.499 12.8121V18.1246H16.249C16.4148 18.1246 16.5738 18.0588 16.691 17.9416C16.8082 17.8244 16.874 17.6654 16.874 17.4996V8.2809" stroke="#FF3E6B" stroke-width="1.00189" stroke-linecap="round" stroke-linejoin="round"/>
<path d="M18.75 9.9993L10.4254 2.03055C10.2301 1.8243 9.77344 1.82196 9.57461 2.03055L1.25 9.9993" stroke="#FF3E6B" stroke-width="1.00189" stroke-linecap="round" stroke-linejoin="round"/>
<path d="M15.6258 6.99345V2.49943H13.75V5.19584" stroke="#FF3E6B" stroke-width="1.00189" stroke-linecap="round" stroke-linejoin="round"/>
</svg>
