<svg width="20" height="20" viewBox="0 0 20 20" fill="none" xmlns="http://www.w3.org/2000/svg">
<path d="M16.249 3.1257H3.74902C2.71349 3.1257 1.87402 3.96517 1.87402 5.0007V15.0007C1.87402 16.0362 2.71349 16.8757 3.74902 16.8757H16.249C17.2846 16.8757 18.124 16.0362 18.124 15.0007V5.0007C18.124 3.96517 17.2846 3.1257 16.249 3.1257Z" stroke="black" stroke-width="1.00189" stroke-linejoin="round"/>
<path d="M13.1259 8.12736C13.8168 8.12736 14.3768 7.56731 14.3768 6.87644C14.3768 6.18558 13.8168 5.62552 13.1259 5.62552C12.4351 5.62552 11.875 6.18558 11.875 6.87644C11.875 7.56731 12.4351 8.12736 13.1259 8.12736Z" stroke="black" stroke-width="1.00189" stroke-miterlimit="10"/>
<path d="M11.874 13.1174L8.33262 9.58262C8.10727 9.35732 7.80438 9.22659 7.48586 9.21716C7.16734 9.20772 6.85724 9.32028 6.61895 9.53184L1.87402 13.7506" stroke="black" stroke-width="1.00189" stroke-linecap="round" stroke-linejoin="round"/>
<path d="M8.74951 16.8749L13.5675 12.0569C13.7878 11.8361 14.0827 11.7057 14.3943 11.6912C14.7059 11.6768 15.0116 11.7794 15.2515 11.9788L18.1245 14.3749" stroke="black" stroke-width="1.00189" stroke-linecap="round" stroke-linejoin="round"/>
</svg>
